# xmcd CD database file
# Copyright (C) 1993-1996 Ti Kan
#
# Track frame offsets:
# 182
# 12295
# 26645
# 40487
# 52807
# 66767
# 80257
# 92640
# 105805
# 118545
# 132425
# 147137
#
# Disc length: 2124 seconds
#
# Revision: 2
# Processed by: cddbd v1.4b41PL1 Copyright (c) Steve Scherf et al.
# Submitted via: inCDius 1.1b2
#
DISCID=91084a0c
DTITLE=Little Walter - The Best Of Little Walter
DYEAR=1900
DGENRE=
TTITLE0=My Babe
TTITLE1=Sad Hours
TTITLE2=You're So Fine
TTITLE3=Last Night
TTITLE4=Blues With A Feeling
TTITLE5=Can't Hold Out Much Longer
TTITLE6=Juke
TTITLE7=Old Mean World
TTITLE8=Off The Wall
TTITLE9=You Better Watch Yourself
TTITLE10=Blue Light
TTITLE11=Tell Me Mama
EXTD=
EXTT0=
EXTT1=
EXTT2=
EXTT3=
EXTT4=
EXTT5=
EXTT6=
EXTT7=
EXTT8=
EXTT9=
EXTT10=
EXTT11=
PLAYORDER=
